<mxfile host="Electron" agent="Mozilla/5.0 (Windows NT 10.0; Win64; x64) AppleWebKit/537.36 (KHTML, like Gecko) draw.io/26.1.1 Chrome/132.0.6834.210 Electron/34.3.3 Safari/537.36" version="26.1.1">
  <diagram name="Page-1" id="52a04d89-c75d-2922-d76d-85b35f80e030">
    <mxGraphModel dx="2068" dy="1050" grid="1" gridSize="10" guides="1" tooltips="1" connect="1" arrows="1" fold="1" page="1" pageScale="1" pageWidth="1100" pageHeight="850" background="none" math="0" shadow="0">
      <root>
        <mxCell id="0" />
        <mxCell id="1" parent="0" />
        <mxCell id="QEEBglEGWocPU-IdF2YJ-1" value="depl&lt;span style=&quot;background-color: transparent; color: light-dark(rgb(0, 0, 0), rgb(255, 255, 255));&quot;&gt;oy.sh&lt;/span&gt;" style="whiteSpace=wrap;html=1;rounded=0;shadow=0;comic=0;labelBackgroundColor=none;strokeWidth=1;fontFamily=Verdana;fontSize=12;align=center;" vertex="1" parent="1">
          <mxGeometry x="200" y="110" width="120" height="50" as="geometry" />
        </mxCell>
        <mxCell id="QEEBglEGWocPU-IdF2YJ-2" value="depl&lt;span style=&quot;background-color: transparent; color: light-dark(rgb(0, 0, 0), rgb(255, 255, 255));&quot;&gt;oy-ansible.sh&lt;/span&gt;" style="whiteSpace=wrap;html=1;rounded=0;shadow=0;comic=0;labelBackgroundColor=none;strokeWidth=1;fontFamily=Verdana;fontSize=12;align=center;" vertex="1" parent="1">
          <mxGeometry y="160" width="120" height="50" as="geometry" />
        </mxCell>
        <mxCell id="QEEBglEGWocPU-IdF2YJ-3" value="depl&lt;span style=&quot;background-color: transparent; color: light-dark(rgb(0, 0, 0), rgb(255, 255, 255));&quot;&gt;oy-remoto&lt;/span&gt;&lt;span style=&quot;background-color: transparent; color: light-dark(rgb(0, 0, 0), rgb(255, 255, 255));&quot;&gt;.sh&lt;/span&gt;" style="whiteSpace=wrap;html=1;rounded=0;shadow=0;comic=0;labelBackgroundColor=none;strokeWidth=1;fontFamily=Verdana;fontSize=12;align=center;" vertex="1" parent="1">
          <mxGeometry y="70" width="120" height="50" as="geometry" />
        </mxCell>
        <mxCell id="QEEBglEGWocPU-IdF2YJ-4" value="" style="endArrow=classic;html=1;rounded=0;entryX=0;entryY=0.5;entryDx=0;entryDy=0;exitX=1;exitY=0.5;exitDx=0;exitDy=0;" edge="1" parent="1" source="QEEBglEGWocPU-IdF2YJ-3" target="QEEBglEGWocPU-IdF2YJ-1">
          <mxGeometry width="50" height="50" relative="1" as="geometry">
            <mxPoint x="130" y="100" as="sourcePoint" />
            <mxPoint x="180" y="50" as="targetPoint" />
          </mxGeometry>
        </mxCell>
        <mxCell id="QEEBglEGWocPU-IdF2YJ-6" value="" style="endArrow=classic;html=1;rounded=0;exitX=1;exitY=0.5;exitDx=0;exitDy=0;entryX=0;entryY=0.5;entryDx=0;entryDy=0;" edge="1" parent="1" source="QEEBglEGWocPU-IdF2YJ-2" target="QEEBglEGWocPU-IdF2YJ-1">
          <mxGeometry width="50" height="50" relative="1" as="geometry">
            <mxPoint x="140" y="190" as="sourcePoint" />
            <mxPoint x="190" y="140" as="targetPoint" />
          </mxGeometry>
        </mxCell>
        <mxCell id="QEEBglEGWocPU-IdF2YJ-7" value="Verifica la conexiÃ³n SSH" style="ellipse;whiteSpace=wrap;html=1;align=center;newEdgeStyle={&quot;edgeStyle&quot;:&quot;entityRelationEdgeStyle&quot;,&quot;startArrow&quot;:&quot;none&quot;,&quot;endArrow&quot;:&quot;none&quot;,&quot;segment&quot;:10,&quot;curved&quot;:1,&quot;sourcePerimeterSpacing&quot;:0,&quot;targetPerimeterSpacing&quot;:0};treeFolding=1;treeMoving=1;" vertex="1" parent="1">
          <mxGeometry x="380" y="107.5" width="120" height="55" as="geometry" />
        </mxCell>
        <mxCell id="QEEBglEGWocPU-IdF2YJ-8" value="playbook-main.yml" style="whiteSpace=wrap;html=1;rounded=0;shadow=0;comic=0;labelBackgroundColor=none;strokeWidth=1;fontFamily=Verdana;fontSize=12;align=center;" vertex="1" parent="1">
          <mxGeometry x="555" y="235" width="120" height="50" as="geometry" />
        </mxCell>
        <mxCell id="QEEBglEGWocPU-IdF2YJ-9" value="Ejecuta el playbook principal" style="ellipse;whiteSpace=wrap;html=1;align=center;newEdgeStyle={&quot;edgeStyle&quot;:&quot;entityRelationEdgeStyle&quot;,&quot;startArrow&quot;:&quot;none&quot;,&quot;endArrow&quot;:&quot;none&quot;,&quot;segment&quot;:10,&quot;curved&quot;:1,&quot;sourcePerimeterSpacing&quot;:0,&quot;targetPerimeterSpacing&quot;:0};treeFolding=1;treeMoving=1;" vertex="1" parent="1">
          <mxGeometry x="560" y="107.5" width="110" height="55" as="geometry" />
        </mxCell>
        <mxCell id="QEEBglEGWocPU-IdF2YJ-10" value="" style="endArrow=classic;html=1;rounded=0;exitX=1;exitY=0.5;exitDx=0;exitDy=0;entryX=0;entryY=0.5;entryDx=0;entryDy=0;" edge="1" parent="1" source="QEEBglEGWocPU-IdF2YJ-1" target="QEEBglEGWocPU-IdF2YJ-7">
          <mxGeometry width="50" height="50" relative="1" as="geometry">
            <mxPoint x="360" y="140" as="sourcePoint" />
            <mxPoint x="410" y="90" as="targetPoint" />
          </mxGeometry>
        </mxCell>
        <mxCell id="QEEBglEGWocPU-IdF2YJ-11" value="" style="endArrow=classic;html=1;rounded=0;exitX=1;exitY=0.5;exitDx=0;exitDy=0;entryX=0;entryY=0.5;entryDx=0;entryDy=0;" edge="1" parent="1" source="QEEBglEGWocPU-IdF2YJ-7" target="QEEBglEGWocPU-IdF2YJ-9">
          <mxGeometry width="50" height="50" relative="1" as="geometry">
            <mxPoint x="490" y="50" as="sourcePoint" />
            <mxPoint x="540" as="targetPoint" />
          </mxGeometry>
        </mxCell>
        <mxCell id="QEEBglEGWocPU-IdF2YJ-12" value="" style="endArrow=classic;html=1;rounded=0;exitX=0.5;exitY=1;exitDx=0;exitDy=0;entryX=0.5;entryY=0;entryDx=0;entryDy=0;" edge="1" parent="1" source="QEEBglEGWocPU-IdF2YJ-9" target="QEEBglEGWocPU-IdF2YJ-8">
          <mxGeometry width="50" height="50" relative="1" as="geometry">
            <mxPoint x="650" y="200" as="sourcePoint" />
            <mxPoint x="710" y="200" as="targetPoint" />
          </mxGeometry>
        </mxCell>
        <mxCell id="QEEBglEGWocPU-IdF2YJ-13" value="Revisa el archivo inventary" style="ellipse;whiteSpace=wrap;html=1;align=center;newEdgeStyle={&quot;edgeStyle&quot;:&quot;entityRelationEdgeStyle&quot;,&quot;startArrow&quot;:&quot;none&quot;,&quot;endArrow&quot;:&quot;none&quot;,&quot;segment&quot;:10,&quot;curved&quot;:1,&quot;sourcePerimeterSpacing&quot;:0,&quot;targetPerimeterSpacing&quot;:0};treeFolding=1;treeMoving=1;" vertex="1" parent="1">
          <mxGeometry x="560" y="345" width="110" height="55" as="geometry" />
        </mxCell>
        <mxCell id="QEEBglEGWocPU-IdF2YJ-14" value="" style="endArrow=classic;html=1;rounded=0;exitX=0.5;exitY=1;exitDx=0;exitDy=0;entryX=0.5;entryY=0;entryDx=0;entryDy=0;" edge="1" parent="1" source="QEEBglEGWocPU-IdF2YJ-8" target="QEEBglEGWocPU-IdF2YJ-13">
          <mxGeometry width="50" height="50" relative="1" as="geometry">
            <mxPoint x="690" y="315" as="sourcePoint" />
            <mxPoint x="690" y="382" as="targetPoint" />
          </mxGeometry>
        </mxCell>
        <mxCell id="QEEBglEGWocPU-IdF2YJ-15" value="01-configuraciones-comunes.yml" style="whiteSpace=wrap;html=1;rounded=0;shadow=0;comic=0;labelBackgroundColor=none;strokeWidth=1;fontFamily=Verdana;fontSize=12;align=center;" vertex="1" parent="1">
          <mxGeometry x="780" y="20" width="210" height="50" as="geometry" />
        </mxCell>
        <mxCell id="QEEBglEGWocPU-IdF2YJ-17" value="02-instalar-kubernetes.yml" style="whiteSpace=wrap;html=1;rounded=0;shadow=0;comic=0;labelBackgroundColor=none;strokeWidth=1;fontFamily=Verdana;fontSize=12;align=center;" vertex="1" parent="1">
          <mxGeometry x="780" y="100" width="210" height="50" as="geometry" />
        </mxCell>
        <mxCell id="QEEBglEGWocPU-IdF2YJ-18" value="03-configurar-master.yml" style="whiteSpace=wrap;html=1;rounded=0;shadow=0;comic=0;labelBackgroundColor=none;strokeWidth=1;fontFamily=Verdana;fontSize=12;align=center;" vertex="1" parent="1">
          <mxGeometry x="780" y="185" width="210" height="50" as="geometry" />
        </mxCell>
        <mxCell id="QEEBglEGWocPU-IdF2YJ-19" value="04-configurar-worlers.yml" style="whiteSpace=wrap;html=1;rounded=0;shadow=0;comic=0;labelBackgroundColor=none;strokeWidth=1;fontFamily=Verdana;fontSize=12;align=center;" vertex="1" parent="1">
          <mxGeometry x="780" y="270" width="210" height="50" as="geometry" />
        </mxCell>
        <mxCell id="QEEBglEGWocPU-IdF2YJ-20" value="05-certificados.yml" style="whiteSpace=wrap;html=1;rounded=0;shadow=0;comic=0;labelBackgroundColor=none;strokeWidth=1;fontFamily=Verdana;fontSize=12;align=center;" vertex="1" parent="1">
          <mxGeometry x="780" y="350" width="210" height="50" as="geometry" />
        </mxCell>
        <mxCell id="QEEBglEGWocPU-IdF2YJ-21" value="06-despliegue-web.yml" style="whiteSpace=wrap;html=1;rounded=0;shadow=0;comic=0;labelBackgroundColor=none;strokeWidth=1;fontFamily=Verdana;fontSize=12;align=center;" vertex="1" parent="1">
          <mxGeometry x="780" y="440" width="210" height="50" as="geometry" />
        </mxCell>
        <mxCell id="QEEBglEGWocPU-IdF2YJ-22" value="&lt;font style=&quot;font-size: 18px;&quot;&gt;Roles&lt;/font&gt;" style="ellipse;whiteSpace=wrap;html=1;align=center;newEdgeStyle={&quot;edgeStyle&quot;:&quot;entityRelationEdgeStyle&quot;,&quot;startArrow&quot;:&quot;none&quot;,&quot;endArrow&quot;:&quot;none&quot;,&quot;segment&quot;:10,&quot;curved&quot;:1,&quot;sourcePerimeterSpacing&quot;:0,&quot;targetPerimeterSpacing&quot;:0};treeFolding=1;treeMoving=1;" vertex="1" parent="1">
          <mxGeometry x="1150" y="240" width="110" height="55" as="geometry" />
        </mxCell>
        <mxCell id="QEEBglEGWocPU-IdF2YJ-23" value="common" style="whiteSpace=wrap;html=1;rounded=0;shadow=0;comic=0;labelBackgroundColor=none;strokeWidth=1;fontFamily=Verdana;fontSize=12;align=center;" vertex="1" parent="1">
          <mxGeometry x="1370" y="10" width="120" height="50" as="geometry" />
        </mxCell>
        <mxCell id="QEEBglEGWocPU-IdF2YJ-25" value="kubernetes" style="whiteSpace=wrap;html=1;rounded=0;shadow=0;comic=0;labelBackgroundColor=none;strokeWidth=1;fontFamily=Verdana;fontSize=12;align=center;" vertex="1" parent="1">
          <mxGeometry x="1370" y="87.5" width="120" height="50" as="geometry" />
        </mxCell>
        <mxCell id="QEEBglEGWocPU-IdF2YJ-27" value="kubernetes-master" style="whiteSpace=wrap;html=1;rounded=0;shadow=0;comic=0;labelBackgroundColor=none;strokeWidth=1;fontFamily=Verdana;fontSize=12;align=center;" vertex="1" parent="1">
          <mxGeometry x="1370" y="180" width="120" height="50" as="geometry" />
        </mxCell>
        <mxCell id="QEEBglEGWocPU-IdF2YJ-29" value="kubernetes-worker" style="whiteSpace=wrap;html=1;rounded=0;shadow=0;comic=0;labelBackgroundColor=none;strokeWidth=1;fontFamily=Verdana;fontSize=12;align=center;" vertex="1" parent="1">
          <mxGeometry x="1370" y="257.5" width="120" height="50" as="geometry" />
        </mxCell>
        <mxCell id="QEEBglEGWocPU-IdF2YJ-31" value="certificados" style="whiteSpace=wrap;html=1;rounded=0;shadow=0;comic=0;labelBackgroundColor=none;strokeWidth=1;fontFamily=Verdana;fontSize=12;align=center;" vertex="1" parent="1">
          <mxGeometry x="1370" y="342.5" width="120" height="50" as="geometry" />
        </mxCell>
        <mxCell id="QEEBglEGWocPU-IdF2YJ-33" value="despliegue-web" style="whiteSpace=wrap;html=1;rounded=0;shadow=0;comic=0;labelBackgroundColor=none;strokeWidth=1;fontFamily=Verdana;fontSize=12;align=center;" vertex="1" parent="1">
          <mxGeometry x="1370" y="430" width="120" height="50" as="geometry" />
        </mxCell>
        <mxCell id="QEEBglEGWocPU-IdF2YJ-34" value="Usa group_vars para acceder a las variables de entorno" style="ellipse;whiteSpace=wrap;html=1;align=center;newEdgeStyle={&quot;edgeStyle&quot;:&quot;entityRelationEdgeStyle&quot;,&quot;startArrow&quot;:&quot;none&quot;,&quot;endArrow&quot;:&quot;none&quot;,&quot;segment&quot;:10,&quot;curved&quot;:1,&quot;sourcePerimeterSpacing&quot;:0,&quot;targetPerimeterSpacing&quot;:0};treeFolding=1;treeMoving=1;" vertex="1" parent="1">
          <mxGeometry x="310" y="225" width="150" height="70" as="geometry" />
        </mxCell>
        <mxCell id="QEEBglEGWocPU-IdF2YJ-35" value="" style="endArrow=classic;html=1;rounded=0;exitX=0;exitY=0.5;exitDx=0;exitDy=0;entryX=1;entryY=0.5;entryDx=0;entryDy=0;" edge="1" parent="1" source="QEEBglEGWocPU-IdF2YJ-8" target="QEEBglEGWocPU-IdF2YJ-34">
          <mxGeometry width="50" height="50" relative="1" as="geometry">
            <mxPoint x="430" y="335" as="sourcePoint" />
            <mxPoint x="555" y="335" as="targetPoint" />
          </mxGeometry>
        </mxCell>
        <mxCell id="QEEBglEGWocPU-IdF2YJ-48" value="&lt;font style=&quot;font-size: 18px;&quot;&gt;Ejecuta las directicas de cada rol&lt;/font&gt;" style="ellipse;whiteSpace=wrap;html=1;align=center;newEdgeStyle={&quot;edgeStyle&quot;:&quot;entityRelationEdgeStyle&quot;,&quot;startArrow&quot;:&quot;none&quot;,&quot;endArrow&quot;:&quot;none&quot;,&quot;segment&quot;:10,&quot;curved&quot;:1,&quot;sourcePerimeterSpacing&quot;:0,&quot;targetPerimeterSpacing&quot;:0};treeFolding=1;treeMoving=1;" vertex="1" parent="1">
          <mxGeometry x="1620" y="167.5" width="210" height="117.5" as="geometry" />
        </mxCell>
        <mxCell id="QEEBglEGWocPU-IdF2YJ-55" value="" style="edgeStyle=elbowEdgeStyle;elbow=horizontal;endArrow=classic;html=1;curved=0;rounded=0;endSize=8;startSize=8;exitX=1;exitY=0.5;exitDx=0;exitDy=0;entryX=0;entryY=0.5;entryDx=0;entryDy=0;" edge="1" parent="1" source="QEEBglEGWocPU-IdF2YJ-8" target="QEEBglEGWocPU-IdF2YJ-15">
          <mxGeometry width="50" height="50" relative="1" as="geometry">
            <mxPoint x="740" y="240" as="sourcePoint" />
            <mxPoint x="790" y="190" as="targetPoint" />
          </mxGeometry>
        </mxCell>
        <mxCell id="QEEBglEGWocPU-IdF2YJ-57" value="" style="edgeStyle=elbowEdgeStyle;elbow=horizontal;endArrow=classic;html=1;curved=0;rounded=0;endSize=8;startSize=8;exitX=1;exitY=0.5;exitDx=0;exitDy=0;entryX=0;entryY=0.5;entryDx=0;entryDy=0;" edge="1" parent="1" source="QEEBglEGWocPU-IdF2YJ-8" target="QEEBglEGWocPU-IdF2YJ-20">
          <mxGeometry width="50" height="50" relative="1" as="geometry">
            <mxPoint x="750" y="390" as="sourcePoint" />
            <mxPoint x="800" y="340" as="targetPoint" />
          </mxGeometry>
        </mxCell>
        <mxCell id="QEEBglEGWocPU-IdF2YJ-58" value="" style="edgeStyle=elbowEdgeStyle;elbow=horizontal;endArrow=classic;html=1;curved=0;rounded=0;endSize=8;startSize=8;exitX=1;exitY=0.5;exitDx=0;exitDy=0;entryX=0;entryY=0.5;entryDx=0;entryDy=0;" edge="1" parent="1" source="QEEBglEGWocPU-IdF2YJ-8" target="QEEBglEGWocPU-IdF2YJ-17">
          <mxGeometry width="50" height="50" relative="1" as="geometry">
            <mxPoint x="760" y="400" as="sourcePoint" />
            <mxPoint x="810" y="350" as="targetPoint" />
          </mxGeometry>
        </mxCell>
        <mxCell id="QEEBglEGWocPU-IdF2YJ-59" value="" style="edgeStyle=elbowEdgeStyle;elbow=horizontal;endArrow=classic;html=1;curved=0;rounded=0;endSize=8;startSize=8;exitX=1;exitY=0.5;exitDx=0;exitDy=0;entryX=0;entryY=0.5;entryDx=0;entryDy=0;" edge="1" parent="1" source="QEEBglEGWocPU-IdF2YJ-8" target="QEEBglEGWocPU-IdF2YJ-18">
          <mxGeometry width="50" height="50" relative="1" as="geometry">
            <mxPoint x="770" y="410" as="sourcePoint" />
            <mxPoint x="820" y="360" as="targetPoint" />
          </mxGeometry>
        </mxCell>
        <mxCell id="QEEBglEGWocPU-IdF2YJ-60" value="" style="edgeStyle=elbowEdgeStyle;elbow=horizontal;endArrow=classic;html=1;curved=0;rounded=0;endSize=8;startSize=8;exitX=1;exitY=0.5;exitDx=0;exitDy=0;entryX=0;entryY=0.5;entryDx=0;entryDy=0;" edge="1" parent="1" source="QEEBglEGWocPU-IdF2YJ-8" target="QEEBglEGWocPU-IdF2YJ-19">
          <mxGeometry width="50" height="50" relative="1" as="geometry">
            <mxPoint x="780" y="420" as="sourcePoint" />
            <mxPoint x="830" y="370" as="targetPoint" />
          </mxGeometry>
        </mxCell>
        <mxCell id="QEEBglEGWocPU-IdF2YJ-61" value="" style="edgeStyle=elbowEdgeStyle;elbow=horizontal;endArrow=classic;html=1;curved=0;rounded=0;endSize=8;startSize=8;exitX=1;exitY=0.5;exitDx=0;exitDy=0;entryX=0;entryY=0.5;entryDx=0;entryDy=0;" edge="1" parent="1" source="QEEBglEGWocPU-IdF2YJ-8" target="QEEBglEGWocPU-IdF2YJ-21">
          <mxGeometry width="50" height="50" relative="1" as="geometry">
            <mxPoint x="790" y="430" as="sourcePoint" />
            <mxPoint x="840" y="380" as="targetPoint" />
          </mxGeometry>
        </mxCell>
        <mxCell id="QEEBglEGWocPU-IdF2YJ-62" value="" style="edgeStyle=elbowEdgeStyle;elbow=horizontal;endArrow=classic;html=1;curved=0;rounded=0;endSize=8;startSize=8;exitX=1;exitY=0.5;exitDx=0;exitDy=0;entryX=0;entryY=0.5;entryDx=0;entryDy=0;" edge="1" parent="1" source="QEEBglEGWocPU-IdF2YJ-15" target="QEEBglEGWocPU-IdF2YJ-22">
          <mxGeometry width="50" height="50" relative="1" as="geometry">
            <mxPoint x="1050" y="40" as="sourcePoint" />
            <mxPoint x="1100" y="227.5" as="targetPoint" />
          </mxGeometry>
        </mxCell>
        <mxCell id="QEEBglEGWocPU-IdF2YJ-63" value="" style="edgeStyle=elbowEdgeStyle;elbow=horizontal;endArrow=classic;html=1;curved=0;rounded=0;endSize=8;startSize=8;exitX=1;exitY=0.5;exitDx=0;exitDy=0;entryX=0;entryY=0.5;entryDx=0;entryDy=0;" edge="1" parent="1" source="QEEBglEGWocPU-IdF2YJ-19" target="QEEBglEGWocPU-IdF2YJ-22">
          <mxGeometry width="50" height="50" relative="1" as="geometry">
            <mxPoint x="1080" y="450" as="sourcePoint" />
            <mxPoint x="1100" y="227.5" as="targetPoint" />
          </mxGeometry>
        </mxCell>
        <mxCell id="QEEBglEGWocPU-IdF2YJ-64" value="" style="edgeStyle=elbowEdgeStyle;elbow=horizontal;endArrow=classic;html=1;curved=0;rounded=0;endSize=8;startSize=8;exitX=1;exitY=0.5;exitDx=0;exitDy=0;entryX=0;entryY=0.5;entryDx=0;entryDy=0;" edge="1" parent="1" source="QEEBglEGWocPU-IdF2YJ-17" target="QEEBglEGWocPU-IdF2YJ-22">
          <mxGeometry width="50" height="50" relative="1" as="geometry">
            <mxPoint x="1070" y="317.5" as="sourcePoint" />
            <mxPoint x="1100" y="227.5" as="targetPoint" />
          </mxGeometry>
        </mxCell>
        <mxCell id="QEEBglEGWocPU-IdF2YJ-65" value="" style="edgeStyle=elbowEdgeStyle;elbow=horizontal;endArrow=classic;html=1;curved=0;rounded=0;endSize=8;startSize=8;exitX=1;exitY=0.5;exitDx=0;exitDy=0;entryX=0;entryY=0.5;entryDx=0;entryDy=0;" edge="1" parent="1" source="QEEBglEGWocPU-IdF2YJ-18" target="QEEBglEGWocPU-IdF2YJ-22">
          <mxGeometry width="50" height="50" relative="1" as="geometry">
            <mxPoint x="1050" y="350" as="sourcePoint" />
            <mxPoint x="1100" y="227.5" as="targetPoint" />
            <Array as="points">
              <mxPoint x="1070" y="240" />
            </Array>
          </mxGeometry>
        </mxCell>
        <mxCell id="QEEBglEGWocPU-IdF2YJ-66" value="" style="edgeStyle=elbowEdgeStyle;elbow=horizontal;endArrow=classic;html=1;curved=0;rounded=0;endSize=8;startSize=8;exitX=1;exitY=0.5;exitDx=0;exitDy=0;entryX=0;entryY=0.5;entryDx=0;entryDy=0;" edge="1" parent="1" source="QEEBglEGWocPU-IdF2YJ-21" target="QEEBglEGWocPU-IdF2YJ-22">
          <mxGeometry width="50" height="50" relative="1" as="geometry">
            <mxPoint x="1090" y="460" as="sourcePoint" />
            <mxPoint x="1100" y="227.5" as="targetPoint" />
          </mxGeometry>
        </mxCell>
        <mxCell id="QEEBglEGWocPU-IdF2YJ-67" value="" style="edgeStyle=elbowEdgeStyle;elbow=horizontal;endArrow=classic;html=1;curved=0;rounded=0;endSize=8;startSize=8;exitX=1;exitY=0.5;exitDx=0;exitDy=0;entryX=0;entryY=0.5;entryDx=0;entryDy=0;" edge="1" parent="1" source="QEEBglEGWocPU-IdF2YJ-20" target="QEEBglEGWocPU-IdF2YJ-22">
          <mxGeometry width="50" height="50" relative="1" as="geometry">
            <mxPoint x="1100" y="470" as="sourcePoint" />
            <mxPoint x="1100" y="227.5" as="targetPoint" />
          </mxGeometry>
        </mxCell>
        <mxCell id="QEEBglEGWocPU-IdF2YJ-73" value="" style="edgeStyle=elbowEdgeStyle;elbow=horizontal;endArrow=classic;html=1;curved=0;rounded=0;endSize=8;startSize=8;exitX=1;exitY=0.5;exitDx=0;exitDy=0;entryX=0;entryY=0.5;entryDx=0;entryDy=0;" edge="1" parent="1" source="QEEBglEGWocPU-IdF2YJ-22" target="QEEBglEGWocPU-IdF2YJ-33">
          <mxGeometry width="50" height="50" relative="1" as="geometry">
            <mxPoint x="1210" y="370" as="sourcePoint" />
            <mxPoint x="1250" y="480" as="targetPoint" />
          </mxGeometry>
        </mxCell>
        <mxCell id="QEEBglEGWocPU-IdF2YJ-74" value="" style="edgeStyle=elbowEdgeStyle;elbow=horizontal;endArrow=classic;html=1;curved=0;rounded=0;endSize=8;startSize=8;exitX=1;exitY=0.5;exitDx=0;exitDy=0;entryX=0;entryY=0.5;entryDx=0;entryDy=0;" edge="1" parent="1" source="QEEBglEGWocPU-IdF2YJ-22" target="QEEBglEGWocPU-IdF2YJ-31">
          <mxGeometry width="50" height="50" relative="1" as="geometry">
            <mxPoint x="1210" y="540" as="sourcePoint" />
            <mxPoint x="1260" y="490" as="targetPoint" />
          </mxGeometry>
        </mxCell>
        <mxCell id="QEEBglEGWocPU-IdF2YJ-75" value="" style="edgeStyle=elbowEdgeStyle;elbow=horizontal;endArrow=classic;html=1;curved=0;rounded=0;endSize=8;startSize=8;exitX=1;exitY=0.5;exitDx=0;exitDy=0;entryX=0;entryY=0.5;entryDx=0;entryDy=0;" edge="1" parent="1" source="QEEBglEGWocPU-IdF2YJ-22" target="QEEBglEGWocPU-IdF2YJ-29">
          <mxGeometry width="50" height="50" relative="1" as="geometry">
            <mxPoint x="1220" y="550" as="sourcePoint" />
            <mxPoint x="1270" y="500" as="targetPoint" />
          </mxGeometry>
        </mxCell>
        <mxCell id="QEEBglEGWocPU-IdF2YJ-76" value="" style="edgeStyle=elbowEdgeStyle;elbow=horizontal;endArrow=classic;html=1;curved=0;rounded=0;endSize=8;startSize=8;exitX=1;exitY=0.5;exitDx=0;exitDy=0;entryX=0;entryY=0.5;entryDx=0;entryDy=0;" edge="1" parent="1" source="QEEBglEGWocPU-IdF2YJ-22" target="QEEBglEGWocPU-IdF2YJ-27">
          <mxGeometry width="50" height="50" relative="1" as="geometry">
            <mxPoint x="1230" y="560" as="sourcePoint" />
            <mxPoint x="1280" y="510" as="targetPoint" />
          </mxGeometry>
        </mxCell>
        <mxCell id="QEEBglEGWocPU-IdF2YJ-77" value="" style="edgeStyle=elbowEdgeStyle;elbow=horizontal;endArrow=classic;html=1;curved=0;rounded=0;endSize=8;startSize=8;exitX=1;exitY=0.5;exitDx=0;exitDy=0;entryX=0;entryY=0.5;entryDx=0;entryDy=0;" edge="1" parent="1" source="QEEBglEGWocPU-IdF2YJ-22" target="QEEBglEGWocPU-IdF2YJ-25">
          <mxGeometry width="50" height="50" relative="1" as="geometry">
            <mxPoint x="1240" y="570" as="sourcePoint" />
            <mxPoint x="1290" y="520" as="targetPoint" />
          </mxGeometry>
        </mxCell>
        <mxCell id="QEEBglEGWocPU-IdF2YJ-78" value="" style="edgeStyle=elbowEdgeStyle;elbow=horizontal;endArrow=classic;html=1;curved=0;rounded=0;endSize=8;startSize=8;exitX=1;exitY=0.5;exitDx=0;exitDy=0;entryX=0;entryY=0.5;entryDx=0;entryDy=0;" edge="1" parent="1" source="QEEBglEGWocPU-IdF2YJ-22" target="QEEBglEGWocPU-IdF2YJ-23">
          <mxGeometry width="50" height="50" relative="1" as="geometry">
            <mxPoint x="1250" y="580" as="sourcePoint" />
            <mxPoint x="1300" y="530" as="targetPoint" />
          </mxGeometry>
        </mxCell>
        <mxCell id="QEEBglEGWocPU-IdF2YJ-80" value="" style="edgeStyle=elbowEdgeStyle;elbow=horizontal;endArrow=classic;html=1;curved=0;rounded=0;endSize=8;startSize=8;exitX=1;exitY=0.5;exitDx=0;exitDy=0;entryX=0;entryY=0.5;entryDx=0;entryDy=0;" edge="1" parent="1" source="QEEBglEGWocPU-IdF2YJ-23" target="QEEBglEGWocPU-IdF2YJ-48">
          <mxGeometry width="50" height="50" relative="1" as="geometry">
            <mxPoint x="1520" y="90" as="sourcePoint" />
            <mxPoint x="1570" y="40" as="targetPoint" />
          </mxGeometry>
        </mxCell>
        <mxCell id="QEEBglEGWocPU-IdF2YJ-81" value="" style="edgeStyle=elbowEdgeStyle;elbow=horizontal;endArrow=classic;html=1;curved=0;rounded=0;endSize=8;startSize=8;exitX=1;exitY=0.5;exitDx=0;exitDy=0;entryX=0;entryY=0.5;entryDx=0;entryDy=0;" edge="1" parent="1" source="QEEBglEGWocPU-IdF2YJ-33" target="QEEBglEGWocPU-IdF2YJ-48">
          <mxGeometry width="50" height="50" relative="1" as="geometry">
            <mxPoint x="1710" y="60" as="sourcePoint" />
            <mxPoint x="1760" y="10" as="targetPoint" />
          </mxGeometry>
        </mxCell>
        <mxCell id="QEEBglEGWocPU-IdF2YJ-82" value="" style="edgeStyle=elbowEdgeStyle;elbow=horizontal;endArrow=classic;html=1;curved=0;rounded=0;endSize=8;startSize=8;exitX=1;exitY=0.5;exitDx=0;exitDy=0;entryX=0;entryY=0.5;entryDx=0;entryDy=0;" edge="1" parent="1" source="QEEBglEGWocPU-IdF2YJ-25" target="QEEBglEGWocPU-IdF2YJ-48">
          <mxGeometry width="50" height="50" relative="1" as="geometry">
            <mxPoint x="1720" y="70" as="sourcePoint" />
            <mxPoint x="1770" y="20" as="targetPoint" />
          </mxGeometry>
        </mxCell>
        <mxCell id="QEEBglEGWocPU-IdF2YJ-83" value="" style="edgeStyle=elbowEdgeStyle;elbow=horizontal;endArrow=classic;html=1;curved=0;rounded=0;endSize=8;startSize=8;exitX=1;exitY=0.5;exitDx=0;exitDy=0;entryX=0;entryY=0.5;entryDx=0;entryDy=0;" edge="1" parent="1" source="QEEBglEGWocPU-IdF2YJ-27" target="QEEBglEGWocPU-IdF2YJ-48">
          <mxGeometry width="50" height="50" relative="1" as="geometry">
            <mxPoint x="1730" y="80" as="sourcePoint" />
            <mxPoint x="1780" y="30" as="targetPoint" />
          </mxGeometry>
        </mxCell>
        <mxCell id="QEEBglEGWocPU-IdF2YJ-84" value="" style="edgeStyle=elbowEdgeStyle;elbow=horizontal;endArrow=classic;html=1;curved=0;rounded=0;endSize=8;startSize=8;exitX=1;exitY=0.5;exitDx=0;exitDy=0;entryX=0;entryY=0.5;entryDx=0;entryDy=0;" edge="1" parent="1" source="QEEBglEGWocPU-IdF2YJ-29" target="QEEBglEGWocPU-IdF2YJ-48">
          <mxGeometry width="50" height="50" relative="1" as="geometry">
            <mxPoint x="1740" y="90" as="sourcePoint" />
            <mxPoint x="1790" y="40" as="targetPoint" />
          </mxGeometry>
        </mxCell>
        <mxCell id="QEEBglEGWocPU-IdF2YJ-85" value="" style="edgeStyle=elbowEdgeStyle;elbow=horizontal;endArrow=classic;html=1;curved=0;rounded=0;endSize=8;startSize=8;exitX=1;exitY=0.5;exitDx=0;exitDy=0;entryX=0;entryY=0.5;entryDx=0;entryDy=0;" edge="1" parent="1" source="QEEBglEGWocPU-IdF2YJ-31" target="QEEBglEGWocPU-IdF2YJ-48">
          <mxGeometry width="50" height="50" relative="1" as="geometry">
            <mxPoint x="1750" y="100" as="sourcePoint" />
            <mxPoint x="1800" y="50" as="targetPoint" />
          </mxGeometry>
        </mxCell>
      </root>
    </mxGraphModel>
  </diagram>
</mxfile>
